<?xml version="1.0" encoding="UTF-8" standalone="no"?>
<svg
   width="24"
   height="24"
   viewBox="0 0 24 24"
   fill="none"
   stroke="currentColor"
   stroke-width="2"
   stroke-linecap="round"
   stroke-linejoin="round"
   class="icon icon-tabler icons-tabler-outline icon-tabler-cube-plus"
   version="1.1"
   id="svg16"
   sodipodi:docname="favicon.svg"
   inkscape:version="1.2.2 (b0a8486541, 2022-12-01)"
   inkscape:export-filename="./favicon.png"
   inkscape:export-xdpi="2000"
   inkscape:export-ydpi="2000"
   xmlns:inkscape="http://www.inkscape.org/namespaces/inkscape"
   xmlns:sodipodi="http://sodipodi.sourceforge.net/DTD/sodipodi-0.dtd"
   xmlns="http://www.w3.org/2000/svg"
   xmlns:svg="http://www.w3.org/2000/svg">
  <defs
     id="defs20" />
  <sodipodi:namedview
     id="namedview18"
     pagecolor="#ffffff"
     bordercolor="#000000"
     borderopacity="0.25"
     inkscape:showpageshadow="2"
     inkscape:pageopacity="0.0"
     inkscape:pagecheckerboard="0"
     inkscape:deskcolor="#d1d1d1"
     showgrid="false"
     inkscape:zoom="42.583333"
     inkscape:cx="9.6751468"
     inkscape:cy="11.882583"
     inkscape:window-width="2560"
     inkscape:window-height="1352"
     inkscape:window-x="1920"
     inkscape:window-y="0"
     inkscape:window-maximized="1"
     inkscape:current-layer="svg16" />
  <circle
     style="fill:#333333;stroke:none;stroke-width:2.00573;-inkscape-stroke:none;stop-color:#000000"
     id="path532"
     cx="12"
     cy="12"
     r="12" />
  <path
     d="M 18.084428,12.339913 V 9.2742463 A 1.3462007,1.3462007 0 0 0 17.404529,8.1068592 L 12.645234,5.3818227 a 1.370677,1.370677 0 0 0 -1.359801,0 L 6.5261395,8.1061793 C 6.1052819,8.3475436 5.8462402,8.7928776 5.8462402,9.2742463 v 5.4514327 c 0,0.482048 0.2590417,0.926704 0.6798993,1.167388 l 4.7592935,2.725036 a 1.370677,1.370677 0 0 0 1.359801,0"
     id="path4"
     style="stroke:#ffffff;stroke-width:0.884658" />
  <path
     d="M 11.965334,18.798955 V 11.999963"
     id="path6"
     style="stroke:#ffffff;stroke-width:0.884658" />
  <path
     d="M 11.965334,11.999963 17.900855,8.5732702"
     id="path8"
     style="stroke:#ffffff;stroke-width:0.884658" />
  <path
     d="M 6.0298129,8.5732702 11.965334,11.999963"
     id="path10"
     style="stroke:#ffffff;stroke-width:0.884658" />
  <path
     d="m 14.684931,16.75926 h 4.079397"
     id="path12"
     style="stroke:#ffffff;stroke-width:0.884658" />
  <path
     d="m 16.724631,14.71956 v 4.079395"
     id="path14"
     style="stroke:#ffffff;stroke-width:0.884658" />
</svg>
