<?xml version="1.0" encoding="UTF-8" standalone="no"?>
<svg
   width="24"
   height="24"
   viewBox="0 0 24 24"
   fill="none"
   stroke="currentColor"
   stroke-width="2"
   stroke-linecap="round"
   stroke-linejoin="round"
   class="icon icon-tabler icons-tabler-outline icon-tabler-cube-plus"
   version="1.1"
   id="svg16"
   sodipodi:docname="favicon.svg"
   inkscape:version="1.2.2 (b0a8486541, 2022-12-01)"
   inkscape:export-filename="./favicon.png"
   inkscape:export-xdpi="2000"
   inkscape:export-ydpi="2000"
   xmlns:inkscape="http://www.inkscape.org/namespaces/inkscape"
   xmlns:sodipodi="http://sodipodi.sourceforge.net/DTD/sodipodi-0.dtd"
   xmlns="http://www.w3.org/2000/svg"
   xmlns:svg="http://www.w3.org/2000/svg">
  <defs
     id="defs20" />
  <sodipodi:namedview
     id="namedview18"
     pagecolor="#ffffff"
     bordercolor="#000000"
     borderopacity="0.25"
     inkscape:showpageshadow="2"
     inkscape:pageopacity="0.0"
     inkscape:pagecheckerboard="0"
     inkscape:deskcolor="#d1d1d1"
     showgrid="false"
     inkscape:zoom="42.583333"
     inkscape:cx="9.6751468"
     inkscape:cy="11.882583"
     inkscape:window-width="2560"
     inkscape:window-height="1352"
     inkscape:window-x="1920"
     inkscape:window-y="0"
     inkscape:window-maximized="1"
     inkscape:current-layer="svg16" />
  <circle
     style="fill:#333333;stroke:none;stroke-width:1.70043;-inkscape-stroke:none;stop-color:#000000"
     id="path532"
     cx="12"
     cy="12"
     r="10.173423" />
  <path
     d="M 17.158288,12.288173 V 9.6891463 A 1.1412891,1.1412891 0 0 0 16.58188,8.6994527 L 12.54702,6.389207 a 1.1620397,1.1620397 0 0 0 -1.152819,0 L 7.3593419,8.6988763 C 7.002545,8.9035014 6.7829333,9.281049 6.7829333,9.6891463 V 14.31079 c 0,0.408674 0.2196117,0.785646 0.5764086,0.989695 l 4.0348591,2.310245 a 1.1620397,1.1620397 0 0 0 1.152819,0"
     id="path4"
     style="stroke:#ffffff;stroke-width:0.75" />
  <path
     d="M 11.970611,17.764054 V 11.999969"
     id="path6"
     style="stroke:#ffffff;stroke-width:0.75" />
  <path
     d="M 11.970611,11.999969 17.002658,9.0948691"
     id="path8"
     style="stroke:#ffffff;stroke-width:0.75" />
  <path
     d="M 6.9385635,9.0948691 11.970611,11.999969"
     id="path10"
     style="stroke:#ffffff;stroke-width:0.75" />
  <path
     d="m 14.276245,16.03483 h 3.458452"
     id="path12"
     style="stroke:#ffffff;stroke-width:0.75" />
  <path
     d="m 16.005472,14.305603 v 3.458451"
     id="path14"
     style="stroke:#ffffff;stroke-width:0.75" />
</svg>
